<svg width="237" height="101" fill="none" xmlns="http://www.w3.org/2000/svg"><g clip-path="url(#a)"><path d="M11.85 80.386c-2.57-4.44-5.143-8.897-7.714-13.337-1.165-2.02-2.311-4.04-3.493-6.042-.226-.365-.243-.644 0-1.044C4.5 53.312 8.323 46.66 12.146 40.01c.26-.435.539-.575 1.025-.575 7.194 0 14.406 0 21.6.018.52 0 .816-.122 1.094-.592A2941.588 2941.588 0 0 1 46.083 21.1c.26-.434.243-.73 0-1.183C42.382 13.546 38.715 7.156 35.049.783c-.122-.226-.33-.417-.33-.766h2.015c.4 0 .452.331.574.558C40.8 6.634 44.31 12.692 47.786 18.786c.295.505.608.68 1.181.68a3950 3950 0 0 1 20.366 0c.573 0 .851-.192 1.13-.662 3.457-6.06 6.95-12.1 10.425-18.142.26-.453.521-.68 1.06-.627.522.052 1.06 0 1.599 0 0 .313-.209.505-.33.731-3.632 6.32-7.264 12.64-10.93 18.943-.348.592-.365 1.01-.018 1.62 3.58 6.145 7.125 12.326 10.687 18.507.14.226.313.435.348.714-.8-.018-1.582-.052-2.381-.07-3.545-6.146-7.072-12.31-10.6-18.455-.208-.366-.469-.4-.834-.4H48.83c-.47 0-.73.139-.956.556-3.389 5.92-6.812 11.84-10.235 17.76-.26.47-.243.783 0 1.235 3.527 6.077 7.02 12.17 10.53 18.264-.869-.104-1.425.296-1.79 1.063-3.545-6.147-7.09-12.31-10.617-18.473-.226-.418-.504-.418-.886-.418H14.284c-.487 0-.73.157-.956.557A2238.343 2238.343 0 0 1 3.093 59.928c-.26.453-.26.783 0 1.236 3.527 6.076 7.02 12.17 10.53 18.264-.834-.087-1.425.244-1.755 1.027l-.017-.07Z" fill="#000"/><path d="M46.36 60.433c.349-.766.922-1.167 1.79-1.062h21.235c.47 0 .73-.14.973-.54 1.164-2.072 2.363-4.109 3.545-6.18 2.346-4.075 4.674-8.149 7.003-12.223.799.017 1.581.052 2.38.07-.938 1.915-2.067 3.708-3.127 5.553-2.833 4.963-5.7 9.89-8.533 14.852-.278.505-.608.644-1.146.627-7.194-.018-14.388 0-21.582 0-.417 0-.713.052-.938.47-3.528 6.18-7.09 12.344-10.635 18.507-.348.767-.886 1.167-1.755 1.028-7.107 0-14.197 0-21.304-.018-.469 0-.677.174-.886.558-3.475 6.041-6.968 12.083-10.426 18.142-.33.591-.695.853-1.355.783-.47-.052-.956 0-1.564 0 3.979-6.93 7.906-13.772 11.85-20.597.33-.784.922-1.114 1.756-1.027h21.234c.47 0 .747-.122.973-.54.539-1.01 1.112-1.985 1.686-2.96 2.954-5.136 5.908-10.272 8.862-15.426l-.035-.017Z" fill="#F9B42B"/><path d="M129.3 13.25c5.039 1.932 6.116 8.305 3.562 12.24-1.338 2.054-3.284 3.186-5.7 3.238-4.187.087-8.393.017-12.58.035-.556 0-.713-.244-.713-.75V1.342c0-.697.353-1.045 1.06-1.045h10.183c3.336 0 5.647 1.532 6.638 4.405 1.06 3.082.173 6.407-2.259 8.357-.052.052-.105.087-.191.174v.018Zm-13.902 7.538c0 1.968.018 3.935 0 5.903 0 .522.139.627.643.627 3.51-.018 7.038 0 10.548 0 .365 0 .73 0 1.077-.07 2.885-.505 4.675-2.49 5.022-5.676.365-3.343-1.581-7.26-6.256-7.225-3.475.034-6.933 0-10.408 0-.504 0-.643.121-.643.644.035 1.95 0 3.882 0 5.832l.017-.035Zm0-13.528v5.032c0 .383.07.557.504.557 3.232-.017 6.447.035 9.679-.017 3.093-.053 5.178-2.368 5.143-5.59-.034-3.168-2.172-5.396-5.247-5.414-3.145-.017-6.308 0-9.453-.017-.521 0-.643.156-.626.661.035 1.602 0 3.204 0 4.806V7.26ZM85.84 88.238h5.96c.94 0 1.06.14.887 1.062-.817 4.37-3.406 7.434-7.16 9.559-8.01 4.544-16.89-.157-19.548-7.888-2.763-8.043 1.703-16.818 9.662-18.977 6.498-1.776 13.536 1.619 16.02 7.73.053.105.088.226.123.33.104.297.26.68-.14.802-.382.122-.868.226-1.216-.174-.07-.087-.104-.227-.156-.331-1.93-4.37-5.318-6.808-10.01-7.26-4.76-.453-8.583 1.48-11.277 5.414-4.952 7.19-1.703 17.272 6.36 19.97 6.899 2.316 13.763-2.472 15.465-8.078.157-.523.105-.697-.504-.697-3.544.035-7.09 0-10.617.018-.608 0-.816-.21-.799-.801 0-.54.226-.714.747-.714h6.186l.018.035ZM183.115 61.582V36.911c0-.435-.07-.888.626-.906.608 0 .868.157.851.819-.017 3.882 0 7.782 0 11.665v15.008c0 .348.208.853-.348.975-.538.14-.99.035-1.355-.522-3.58-5.24-7.211-10.464-10.808-15.705-2.051-2.977-4.101-5.937-6.186-8.966-.209.313-.122.61-.122.87v23.4c0 .523.035.958-.73.958-.747 0-.816-.366-.816-.958V36.946c0-.349-.192-.853.364-.975.487-.105.887 0 1.234.505 4.64 6.755 9.297 13.493 13.954 20.248 1.06 1.55 2.137 3.082 3.336 4.823v.035ZM225.149 17.428c1.807 1.637 3.615 3.29 5.422 4.927 1.928 1.742 3.857 3.483 5.769 5.241.278.244.799.418.538.958-.121.26-1.216.33-1.563.087-.244-.174-.435-.383-.661-.575-3.91-3.534-7.802-7.069-11.712-10.603-.26-.226-.469-.453-.486-.853 0-.575.174-.836.799-.818 1.72.034 3.441.017 5.161 0 3.475-.053 5.995-1.916 6.846-5.084 1.234-4.614-1.911-8.862-6.672-8.932-2.746-.035-5.474 0-8.219-.017-.556 0-.609.191-.609.661v25.437c0 .436.087.888-.608.923-.677.035-.869-.192-.869-.87.018-8.95.018-17.881 0-26.83 0-.645.209-.836.834-.836 3.111.035 6.204-.018 9.314.017 4.588.07 7.733 2.716 8.428 7.156.747 4.753-2.224 9.471-7.785 9.802-1.303.07-2.606 0-3.927 0 0 .07-.035.122-.052.192l.052.017ZM102.175 88.812c2.137 1.933 4.153 3.761 6.151 5.572 1.72 1.567 3.458 3.116 5.178 4.7.278.262.939.488.539.993-.365.453-.973.279-1.494.105-.174-.053-.296-.244-.452-.366-3.962-3.587-7.924-7.173-11.869-10.76-.243-.226-.538-.4-.556-.8-.034-.75.07-.889.817-.906 2.085-.052 4.171.14 6.256-.104 3.614-.436 6.029-3.343 5.96-7.139-.07-3.604-2.624-6.46-6.151-6.738-3.041-.244-6.1-.035-9.158-.104-.556 0-.417.33-.417.609v25.594c0 .731-.278.957-.973.836-.295-.053-.487-.192-.487-.523V72.742c0-.65.325-.975.974-.975 3.075 0 6.151-.017 9.244 0 4.327.053 7.541 2.734 8.306 6.877 1.008 5.433-2.728 10.012-8.237 10.151-1.146.035-2.311 0-3.631 0v.017ZM150.204 55.262c-1.981 0-3.98.017-5.961 0-.556 0-.781.191-.99.679-1.043 2.664-2.12 5.293-3.197 7.94-.244.609-.713.817-1.321.609-.486-.174-.33-.505-.208-.836.608-1.532 1.199-3.064 1.807-4.597 2.989-7.59 5.995-15.164 8.983-22.756.174-.452.348-.748.921-.73.452.017.695.156.869.591 3.597 9.14 7.212 18.282 10.809 27.422.121.314.33.662-.105.888-.486.261-1.129.035-1.338-.453-.99-2.42-1.981-4.84-2.954-7.26-.405-.998-1.147-1.497-2.224-1.497h-5.091Zm.017-17.167a3270.497 3270.497 0 0 1-5.873 15.165c-.209.54 0 .54.434.54 3.615 0 7.229-.018 10.826 0 .591 0 .695-.105.469-.662-1.286-3.239-2.537-6.494-3.806-9.733-.66-1.706-1.32-3.412-2.067-5.31h.017ZM157.971 100.304c-.452.087-.678-.209-.851-.627-1.078-2.699-2.19-5.38-3.267-8.079-.174-.453-.4-.61-.904-.592-4.031.018-8.045.035-12.077 0-.538 0-.747.192-.92.644-1.06 2.682-2.155 5.346-3.215 8.01-.139.33-.243.609-.66.644-.887.069-1.13-.209-.8-1.028 2.103-5.31 4.188-10.62 6.291-15.93 1.477-3.761 2.971-7.522 4.448-11.283.174-.452.365-.731.921-.731s.747.279.921.731l10.739 27.213c.312.801.191 1.01-.626 1.01v.018Zm-17.099-10.813h12.129c-2.015-5.188-4.014-10.324-6.081-15.652-2.068 5.345-4.049 10.464-6.048 15.653ZM116.927 50.248V36.91c0-.47 0-.853.661-.888.66-.018.816.244.816.87-.017 3.866 0 7.73-.034 11.596 0 .784.226.888.921.888 4.952-.035 9.887-.017 14.839 0 .574 0 .713-.14.713-.714-.018-3.917 0-7.817 0-11.735 0-.783.173-.922.938-.888.4.018.573.21.556.592v26.97c0 .522.035.957-.73.94-.608 0-.799-.227-.799-.819.017-4.056 0-8.113.035-12.17 0-.609-.157-.748-.747-.748-4.988.035-9.992.017-14.979 0-.556 0-.73.121-.73.714.035 4.056 0 8.113.017 12.17 0 .557-.121.87-.764.835-.521-.017-.73-.191-.73-.73.017-2.108 0-4.232 0-6.338v-7.209h.017ZM199.154 14.468V1.271c0-.958 0-.975.99-.975h14.266c.522 0 .887.052.887.731 0 .644-.33.749-.869.749h-12.442c-.174 0-.347.017-.504 0-.608-.105-.799.104-.799.766a531.87 531.87 0 0 1 0 10.568c0 .575.156.662.678.662 4.24-.018 8.497 0 12.737-.018.608 0 .903.175.886.819 0 .54-.243.714-.765.714H201.343c-.486 0-.66.104-.66.626.017 3.604.017 7.191 0 10.795 0 .523.139.627.643.627 4.396-.018 8.775 0 13.171-.018.695 0 .904.244.852.889-.035.435-.209.591-.626.591h-14.909c-.678 0-.643-.435-.643-.887V14.503l-.017-.035ZM137.015 14.486V1.219c0-.697.191-.923.903-.923 4.779.035 9.558.017 14.336 0 .521 0 .886.052.886.714 0 .714-.382.766-.938.766-4.309 0-8.636 0-12.946-.018-.625 0-.747.175-.729.767.034 3.517.034 7.05 0 10.568 0 .54.121.679.677.679 4.24-.018 8.497 0 12.737-.018.591 0 .904.14.887.801 0 .523-.209.75-.748.732-1.303-.018-2.623 0-3.927 0h-8.949c-.556 0-.677.156-.677.696.017 3.552.017 7.104 0 10.638 0 .557.121.714.695.714 4.361-.035 8.723 0 13.102-.035.677 0 .921.209.868.888-.034.435-.191.61-.625.61h-14.909c-.678 0-.643-.418-.643-.871V14.486ZM117.64 86.044V72.707c0-.713.243-.922.921-.922 4.778.017 9.557 0 14.336 0 .556 0 .886.104.868.748 0 .523-.191.732-.729.732-1.825-.018-3.632 0-5.457 0h-7.784c-.504 0-.661.139-.661.644.018 3.569.018 7.138 0 10.707 0 .558.157.68.695.68 4.24-.018 8.48 0 12.737-.018.591 0 .904.104.887.8 0 .61-.278.715-.817.715H119.69c-.399 0-.538.087-.538.522 0 3.674.017 7.33 0 11.004 0 .592.312.54.677.54h13.172c.486 0 .834.017.851.678 0 .679-.295.819-.886.801h-10.982c-1.147 0-2.276-.034-3.423 0-.713.018-.904-.226-.904-.94.035-4.44 0-8.897 0-13.337l-.017-.017ZM166.347 86.74v12.832c0 .557-.122.871-.765.853-.539 0-.73-.209-.73-.73.018-1.428 0-2.874 0-4.301V74.048c0-.592-.139-.783-.747-.766-2.641.035-5.282 0-7.924.017-.573 0-.903-.087-.886-.783.017-.68.365-.731.886-.731h18.837c.556 0 .851.104.851.766 0 .644-.278.766-.834.766-2.659-.018-5.335 0-7.993-.018-.591 0-.713.174-.713.732.018 4.248 0 8.496 0 12.762l.018-.053ZM103.478 51.014V38.182c0-.54-.139-.697-.678-.68-2.693.036-5.387 0-8.08.018-.59 0-.834-.157-.817-.783 0-.61.278-.732.8-.732h18.992c.556 0 .765.175.765.75 0 .574-.191.765-.765.748-2.693-.018-5.386 0-8.08-.018-.591 0-.695.192-.695.732v25.437c0 .435.122.957-.625.975-.609.017-.869-.14-.869-.819.017-4.282 0-8.548 0-12.831l.052.035ZM185.722 15.182V2.42c0-.557-.139-.679-.678-.679-2.676.035-5.335 0-8.011.018-.573 0-.903-.105-.903-.784s.365-.731.886-.731h18.854c.556 0 .851.104.851.748 0 .645-.278.767-.834.767-2.676-.018-5.335 0-8.011-.018-.573 0-.695.157-.695.714.018 8.514 0 17.01 0 25.524 0 .453.052.888-.625.923-.609.035-.869-.14-.869-.818.017-4.3 0-8.601 0-12.902h.035ZM165.669 15.217v12.832c0 .766-.156.888-.886.853-.383-.018-.591-.174-.574-.575V2.542c0-.644-.156-.783-.782-.783-2.641.034-5.282 0-7.923.017-.556 0-.869-.122-.869-.749s.278-.766.851-.766h18.906c.573 0 .834.157.834.784 0 .644-.33.748-.869.748-2.693 0-5.386 0-8.08-.017-.521 0-.625.157-.625.644.017 4.283 0 8.549 0 12.832l.017-.035ZM35.535 81.552c.869.14 1.408-.261 1.755-1.027 3.545 6.146 7.09 12.274 10.635 18.42.365.627.712 1.254 1.147 2.003H46.9c-.383 0-.417-.366-.556-.592-2.868-4.945-5.717-9.89-8.567-14.834a458.329 458.329 0 0 1-2.26-3.97h.018ZM24.57 76.294h-8.218c-.383 0-.609 0-.609-.522 0-.47.122-.61.609-.61h16.42c.487 0 .591.157.609.61.017.522-.226.522-.609.522h-8.219.018ZM42.573 60.12c-.122.313-.435.365-.678.504-.365.227-.4-.156-.504-.33-1.39-2.386-2.763-4.788-4.136-7.174-1.372-2.367-2.728-4.735-4.1-7.103-.209-.349-.296-.557.139-.784.382-.209.573-.226.816.21 2.729 4.77 5.474 9.523 8.22 14.294.069.121.139.26.208.383h.035ZM7.35 60.694c-.226-.14-.504-.261-.712-.453-.191-.174.07-.348.139-.505 2.745-4.787 5.508-9.558 8.254-14.363.26-.453.452-.314.782-.157.347.191.417.348.19.714-2.762 4.77-5.508 9.558-8.27 14.346-.087.157-.14.383-.4.418h.017ZM77.135 40.933c-.104.191-.174.33-.243.452-2.763 4.788-5.526 9.559-8.254 14.347-.26.453-.435.348-.765.157-.313-.175-.469-.296-.243-.697 2.798-4.805 5.578-9.645 8.358-14.45.087-.14.104-.436.4-.28.26.14.504.314.747.47ZM59.15 24.828h8.132c.435 0 .626.07.626.574 0 .54-.226.575-.643.575H50.93c-.452 0-.626-.07-.643-.592 0-.557.243-.557.66-.557h8.202ZM41.93 40.428c.243.035.26.278.365.47 2.015 3.482 4.031 6.964 6.03 10.446.73 1.289 1.46 2.577 2.224 3.83.26.436.07.558-.261.767-.347.209-.504.174-.712-.192-2.763-4.805-5.526-9.61-8.306-14.416-.209-.348.173-.888.66-.888v-.017Z" fill="#000"/></g><defs><clipPath id="a"><path fill="#fff" d="M0 0h237v101H0z"/></clipPath></defs></svg>